<?xml version="1.0" standalone="no"?>
<!DOCTYPE svg PUBLIC "-//W3C//DTD SVG 20010904//EN"
 "http://www.w3.org/TR/2001/REC-SVG-20010904/DTD/svg10.dtd">
<svg version="1.0" xmlns="http://www.w3.org/2000/svg"
 width="700.000000pt" height="700.000000pt" viewBox="0 0 700.000000 700.000000"
 preserveAspectRatio="xMidYMid meet">
<metadata>
Created by potrace 1.14, written by Peter Selinger 2001-2017
</metadata>
<g transform="translate(0.000000,700.000000) scale(0.100000,-0.100000)"
fill="#000000" stroke="none">
<path d="M0 3500 l0 -3500 3500 0 3500 0 0 3500 0 3500 -3500 0 -3500 0 0
-3500z m2346 2291 c52 -37 217 -210 277 -288 85 -111 78 23 74 -1441 -3 -1278
-3 -1310 -24 -1437 -40 -243 -99 -431 -194 -616 -147 -284 -391 -526 -766
-761 -128 -80 -167 -89 -208 -47 -45 46 -335 522 -335 550 0 47 10 58 104 121
332 221 491 461 563 853 15 80 18 230 23 1375 6 1438 -3 1293 81 1401 77 97
152 178 232 250 90 79 112 85 173 40z m3181 -100 c71 -48 225 -190 265 -245
46 -64 41 -76 -79 -196 -60 -59 -135 -127 -167 -151 l-59 -44 -461 -6 c-508
-6 -514 -7 -576 -69 -61 -61 -63 -75 -67 -482 l-4 -368 486 0 c429 0 490 -2
518 -16 50 -26 157 -116 246 -209 105 -109 106 -119 25 -209 -70 -78 -196
-190 -254 -224 l-45 -27 -487 -3 -488 -3 0 -662 c0 -411 -4 -676 -10 -698 -21
-76 -10 -74 -404 -77 -334 -2 -353 -1 -383 17 -22 14 -34 30 -38 53 -3 18 -4
753 -2 1633 3 1739 1 1655 57 1782 57 130 174 204 365 232 33 5 385 9 781 10
l722 1 59 -39z"/>
</g>
</svg>
