<?xml version="1.0" standalone="no"?>
<!DOCTYPE svg PUBLIC "-//W3C//DTD SVG 20010904//EN"
 "http://www.w3.org/TR/2001/REC-SVG-20010904/DTD/svg10.dtd">
<svg version="1.0" xmlns="http://www.w3.org/2000/svg"
 width="512.000000pt" height="512.000000pt" viewBox="0 0 512.000000 512.000000"
 preserveAspectRatio="xMidYMid meet">
<metadata>
Created by potrace 1.11, written by Peter Selinger 2001-2013
</metadata>
<g transform="translate(0.000000,512.000000) scale(0.100000,-0.100000)"
fill="#000000" stroke="none">
<path d="M2323 4242 c-292 -298 -393 -405 -523 -552 -36 -41 -81 -92 -101
-114 -289 -329 -534 -726 -634 -1031 -70 -214 -85 -455 -39 -615 99 -342 403
-571 759 -574 119 -1 289 39 363 84 18 11 35 20 37 20 19 0 -131 -256 -217
-371 -143 -193 -247 -289 -475 -436 -14 -9 225 -12 1072 -12 l1090 -1 -67 39
c-173 101 -352 276 -476 464 -26 39 -49 74 -52 77 -18 18 -135 244 -123 238
126 -63 195 -85 293 -95 86 -8 230 -9 230 0 0 4 10 7 23 7 12 0 60 14 107 31
47 17 93 31 102 32 9 1 15 3 13 6 -3 2 17 17 44 32 62 35 160 126 215 198 76
98 137 250 152 374 6 51 5 181 -1 222 -3 17 -7 48 -10 69 -24 174 -121 426
-244 636 -82 139 -253 382 -337 480 -12 14 -57 68 -100 120 -44 52 -88 105
-99 116 -11 12 -58 63 -105 115 -146 159 -653 680 -662 679 -2 -1 -107 -107
-235 -238z"/>
</g>
</svg>
